<svg width="206" height="44" viewBox="0 0 206 44" fill="none" xmlns="http://www.w3.org/2000/svg">
<rect x="8.5" y="8" width="28" height="28" rx="14" fill="#322A7D"/>
<path d="M24.435 17.76V27H22.503V19.944L20.501 21.232L19.619 19.79L22.671 17.76H24.435Z" fill="white"/>
<path d="M45.5114 28V16.3636H50.1023C50.9848 16.3636 51.7367 16.5322 52.358 16.8693C52.9792 17.2027 53.4527 17.6667 53.7784 18.2614C54.108 18.8523 54.2727 19.5341 54.2727 20.3068C54.2727 21.0795 54.1061 21.7614 53.7727 22.3523C53.4394 22.9432 52.9564 23.4034 52.3239 23.733C51.6951 24.0625 50.9337 24.2273 50.0398 24.2273H47.1136V22.2557H49.642C50.1155 22.2557 50.5057 22.1742 50.8125 22.0114C51.1231 21.8447 51.3542 21.6155 51.5057 21.3239C51.661 21.0284 51.7386 20.6894 51.7386 20.3068C51.7386 19.9205 51.661 19.5833 51.5057 19.2955C51.3542 19.0038 51.1231 18.7784 50.8125 18.6193C50.5019 18.4564 50.108 18.375 49.6307 18.375H47.9716V28H45.5114ZM59.6619 28.1705C58.7642 28.1705 57.9915 27.9886 57.3438 27.625C56.6998 27.2576 56.2036 26.7386 55.8551 26.0682C55.5066 25.3939 55.3324 24.5966 55.3324 23.6761C55.3324 22.7784 55.5066 21.9905 55.8551 21.3125C56.2036 20.6345 56.6941 20.1061 57.3267 19.7273C57.9631 19.3485 58.7093 19.1591 59.5653 19.1591C60.1411 19.1591 60.6771 19.2519 61.1733 19.4375C61.6733 19.6193 62.1089 19.8939 62.4801 20.2614C62.8551 20.6288 63.1468 21.0909 63.3551 21.6477C63.5634 22.2008 63.6676 22.8485 63.6676 23.5909V24.2557H56.2983V22.7557H61.3892C61.3892 22.4072 61.3134 22.0985 61.1619 21.8295C61.0104 21.5606 60.8002 21.3504 60.5312 21.1989C60.2661 21.0436 59.9574 20.9659 59.6051 20.9659C59.2377 20.9659 58.9119 21.0511 58.6278 21.2216C58.3475 21.3883 58.1278 21.6136 57.9688 21.8977C57.8097 22.178 57.7282 22.4905 57.7244 22.8352V24.2614C57.7244 24.6932 57.804 25.0663 57.9631 25.3807C58.1259 25.6951 58.3551 25.9375 58.6506 26.108C58.946 26.2784 59.2964 26.3636 59.7017 26.3636C59.9706 26.3636 60.2169 26.3258 60.4403 26.25C60.6638 26.1742 60.8551 26.0606 61.0142 25.9091C61.1733 25.7576 61.2945 25.572 61.3778 25.3523L63.6165 25.5C63.5028 26.0379 63.2699 26.5076 62.9176 26.9091C62.5691 27.3068 62.1184 27.6174 61.5653 27.8409C61.0161 28.0606 60.3816 28.1705 59.6619 28.1705ZM65.2472 28V19.2727H67.554V20.8125H67.6562C67.8381 20.3011 68.1411 19.8977 68.5653 19.6023C68.9896 19.3068 69.4972 19.1591 70.0881 19.1591C70.6866 19.1591 71.196 19.3087 71.6165 19.608C72.0369 19.9034 72.3172 20.3049 72.4574 20.8125H72.5483C72.7263 20.3125 73.0483 19.9129 73.5142 19.6136C73.9839 19.3106 74.5388 19.1591 75.179 19.1591C75.9934 19.1591 76.6544 19.4186 77.1619 19.9375C77.6733 20.4527 77.929 21.1837 77.929 22.1307V28H75.5142V22.608C75.5142 22.1231 75.3854 21.7595 75.1278 21.517C74.8703 21.2746 74.5483 21.1534 74.1619 21.1534C73.7225 21.1534 73.3797 21.2936 73.1335 21.5739C72.8873 21.8504 72.7642 22.2159 72.7642 22.6705V28H70.4176V22.5568C70.4176 22.1288 70.2945 21.7879 70.0483 21.5341C69.8059 21.2803 69.4858 21.1534 69.0881 21.1534C68.8191 21.1534 68.5767 21.2216 68.3608 21.358C68.1487 21.4905 67.9801 21.678 67.8551 21.9205C67.7301 22.1591 67.6676 22.4394 67.6676 22.7614V28H65.2472ZM79.8864 28V16.3636H82.3068V20.7386H82.3807C82.4867 20.5038 82.6402 20.2652 82.8409 20.0227C83.0455 19.7765 83.3106 19.572 83.6364 19.4091C83.9659 19.2424 84.375 19.1591 84.8636 19.1591C85.5 19.1591 86.0871 19.3258 86.625 19.6591C87.1629 19.9886 87.5928 20.4867 87.9148 21.1534C88.2367 21.8163 88.3977 22.6477 88.3977 23.6477C88.3977 24.6212 88.2405 25.4432 87.9261 26.1136C87.6155 26.7803 87.1913 27.286 86.6534 27.6307C86.1193 27.9716 85.5208 28.142 84.858 28.142C84.3883 28.142 83.9886 28.0644 83.6591 27.9091C83.3333 27.7538 83.0663 27.5587 82.858 27.3239C82.6496 27.0852 82.4905 26.8447 82.3807 26.6023H82.2727V28H79.8864ZM82.2557 23.6364C82.2557 24.1553 82.3277 24.608 82.4716 24.9943C82.6155 25.3807 82.8239 25.6818 83.0966 25.8977C83.3693 26.1098 83.7008 26.2159 84.0909 26.2159C84.4848 26.2159 84.8182 26.108 85.0909 25.892C85.3636 25.6723 85.5701 25.3693 85.7102 24.983C85.8542 24.5928 85.9261 24.1439 85.9261 23.6364C85.9261 23.1326 85.8561 22.6894 85.7159 22.3068C85.5758 21.9242 85.3693 21.625 85.0966 21.4091C84.8239 21.1932 84.4886 21.0852 84.0909 21.0852C83.697 21.0852 83.3636 21.1894 83.0909 21.3977C82.822 21.6061 82.6155 21.9015 82.4716 22.2841C82.3277 22.6667 82.2557 23.1174 82.2557 23.6364ZM92.5014 28.1648C91.9446 28.1648 91.4484 28.0682 91.0128 27.875C90.5772 27.678 90.2325 27.3883 89.9787 27.0057C89.7287 26.6193 89.6037 26.1383 89.6037 25.5625C89.6037 25.0777 89.6927 24.6705 89.8707 24.3409C90.0488 24.0114 90.2912 23.7462 90.598 23.5455C90.9048 23.3447 91.2533 23.1932 91.6435 23.0909C92.0374 22.9886 92.4503 22.9167 92.8821 22.875C93.3897 22.822 93.7988 22.7727 94.1094 22.7273C94.42 22.678 94.6454 22.6061 94.7855 22.5114C94.9257 22.4167 94.9957 22.2765 94.9957 22.0909V22.0568C94.9957 21.697 94.8821 21.4186 94.6548 21.2216C94.4313 21.0246 94.1132 20.9261 93.7003 20.9261C93.2647 20.9261 92.9181 21.0227 92.6605 21.2159C92.4029 21.4053 92.2325 21.6439 92.1491 21.9318L89.9105 21.75C90.0241 21.2197 90.2476 20.7614 90.581 20.375C90.9143 19.9848 91.3442 19.6856 91.8707 19.4773C92.401 19.2652 93.0147 19.1591 93.7116 19.1591C94.1965 19.1591 94.6605 19.2159 95.1037 19.3295C95.5507 19.4432 95.9465 19.6193 96.2912 19.858C96.6397 20.0966 96.9143 20.4034 97.1151 20.7784C97.3158 21.1496 97.4162 21.5947 97.4162 22.1136V28H95.1207V26.7898H95.0526C94.9124 27.0625 94.7249 27.303 94.4901 27.5114C94.2552 27.7159 93.973 27.8769 93.6435 27.9943C93.3139 28.108 92.9332 28.1648 92.5014 28.1648ZM93.1946 26.4943C93.5507 26.4943 93.8651 26.4242 94.1378 26.2841C94.4105 26.1402 94.6245 25.947 94.7798 25.7045C94.9351 25.4621 95.0128 25.1875 95.0128 24.8807V23.9545C94.937 24.0038 94.8329 24.0492 94.7003 24.0909C94.5715 24.1288 94.4257 24.1648 94.2628 24.1989C94.0999 24.2292 93.937 24.2576 93.7741 24.2841C93.6113 24.3068 93.4635 24.3277 93.331 24.3466C93.0469 24.3883 92.7988 24.4545 92.5866 24.5455C92.3745 24.6364 92.2098 24.7595 92.0923 24.9148C91.9749 25.0663 91.9162 25.2557 91.9162 25.483C91.9162 25.8125 92.0355 26.0644 92.2741 26.2386C92.5166 26.4091 92.8234 26.4943 93.1946 26.4943ZM103.936 19.2727V21.0909H98.6804V19.2727H103.936ZM99.8736 17.1818H102.294V25.3182C102.294 25.5417 102.328 25.7159 102.396 25.8409C102.464 25.9621 102.559 26.0473 102.68 26.0966C102.805 26.1458 102.949 26.1705 103.112 26.1705C103.226 26.1705 103.339 26.161 103.453 26.142C103.567 26.1193 103.654 26.1023 103.714 26.0909L104.095 27.892C103.974 27.9299 103.804 27.9735 103.584 28.0227C103.364 28.0758 103.097 28.108 102.783 28.1193C102.199 28.142 101.688 28.0644 101.249 27.8864C100.813 27.7083 100.474 27.4318 100.232 27.0568C99.9891 26.6818 99.8698 26.2083 99.8736 25.6364V17.1818ZM108.001 28.1648C107.445 28.1648 106.948 28.0682 106.513 27.875C106.077 27.678 105.732 27.3883 105.479 27.0057C105.229 26.6193 105.104 26.1383 105.104 25.5625C105.104 25.0777 105.193 24.6705 105.371 24.3409C105.549 24.0114 105.791 23.7462 106.098 23.5455C106.405 23.3447 106.753 23.1932 107.143 23.0909C107.537 22.9886 107.95 22.9167 108.382 22.875C108.89 22.822 109.299 22.7727 109.609 22.7273C109.92 22.678 110.145 22.6061 110.286 22.5114C110.426 22.4167 110.496 22.2765 110.496 22.0909V22.0568C110.496 21.697 110.382 21.4186 110.155 21.2216C109.931 21.0246 109.613 20.9261 109.2 20.9261C108.765 20.9261 108.418 21.0227 108.161 21.2159C107.903 21.4053 107.732 21.6439 107.649 21.9318L105.411 21.75C105.524 21.2197 105.748 20.7614 106.081 20.375C106.414 19.9848 106.844 19.6856 107.371 19.4773C107.901 19.2652 108.515 19.1591 109.212 19.1591C109.696 19.1591 110.161 19.2159 110.604 19.3295C111.051 19.4432 111.446 19.6193 111.791 19.858C112.14 20.0966 112.414 20.4034 112.615 20.7784C112.816 21.1496 112.916 21.5947 112.916 22.1136V28H110.621V26.7898H110.553C110.412 27.0625 110.225 27.303 109.99 27.5114C109.755 27.7159 109.473 27.8769 109.143 27.9943C108.814 28.108 108.433 28.1648 108.001 28.1648ZM108.695 26.4943C109.051 26.4943 109.365 26.4242 109.638 26.2841C109.911 26.1402 110.125 25.947 110.28 25.7045C110.435 25.4621 110.513 25.1875 110.513 24.8807V23.9545C110.437 24.0038 110.333 24.0492 110.2 24.0909C110.071 24.1288 109.926 24.1648 109.763 24.1989C109.6 24.2292 109.437 24.2576 109.274 24.2841C109.111 24.3068 108.964 24.3277 108.831 24.3466C108.547 24.3883 108.299 24.4545 108.087 24.5455C107.875 24.6364 107.71 24.7595 107.592 24.9148C107.475 25.0663 107.416 25.2557 107.416 25.483C107.416 25.8125 107.536 26.0644 107.774 26.2386C108.017 26.4091 108.323 26.4943 108.695 26.4943ZM117.214 16.3636V28H114.794V16.3636H117.214ZM121.642 28.1648C121.085 28.1648 120.589 28.0682 120.153 27.875C119.718 27.678 119.373 27.3883 119.119 27.0057C118.869 26.6193 118.744 26.1383 118.744 25.5625C118.744 25.0777 118.833 24.6705 119.011 24.3409C119.189 24.0114 119.432 23.7462 119.739 23.5455C120.045 23.3447 120.394 23.1932 120.784 23.0909C121.178 22.9886 121.591 22.9167 122.023 22.875C122.53 22.822 122.939 22.7727 123.25 22.7273C123.561 22.678 123.786 22.6061 123.926 22.5114C124.066 22.4167 124.136 22.2765 124.136 22.0909V22.0568C124.136 21.697 124.023 21.4186 123.795 21.2216C123.572 21.0246 123.254 20.9261 122.841 20.9261C122.405 20.9261 122.059 21.0227 121.801 21.2159C121.544 21.4053 121.373 21.6439 121.29 21.9318L119.051 21.75C119.165 21.2197 119.388 20.7614 119.722 20.375C120.055 19.9848 120.485 19.6856 121.011 19.4773C121.542 19.2652 122.155 19.1591 122.852 19.1591C123.337 19.1591 123.801 19.2159 124.244 19.3295C124.691 19.4432 125.087 19.6193 125.432 19.858C125.78 20.0966 126.055 20.4034 126.256 20.7784C126.456 21.1496 126.557 21.5947 126.557 22.1136V28H124.261V26.7898H124.193C124.053 27.0625 123.866 27.303 123.631 27.5114C123.396 27.7159 123.114 27.8769 122.784 27.9943C122.455 28.108 122.074 28.1648 121.642 28.1648ZM122.335 26.4943C122.691 26.4943 123.006 26.4242 123.278 26.2841C123.551 26.1402 123.765 25.947 123.92 25.7045C124.076 25.4621 124.153 25.1875 124.153 24.8807V23.9545C124.078 24.0038 123.973 24.0492 123.841 24.0909C123.712 24.1288 123.566 24.1648 123.403 24.1989C123.241 24.2292 123.078 24.2576 122.915 24.2841C122.752 24.3068 122.604 24.3277 122.472 24.3466C122.188 24.3883 121.939 24.4545 121.727 24.5455C121.515 24.6364 121.35 24.7595 121.233 24.9148C121.116 25.0663 121.057 25.2557 121.057 25.483C121.057 25.8125 121.176 26.0644 121.415 26.2386C121.657 26.4091 121.964 26.4943 122.335 26.4943ZM130.855 22.9545V28H128.435V19.2727H130.741V20.8125H130.844C131.037 20.3049 131.361 19.9034 131.815 19.608C132.27 19.3087 132.821 19.1591 133.469 19.1591C134.075 19.1591 134.603 19.2917 135.054 19.5568C135.505 19.822 135.855 20.2008 136.105 20.6932C136.355 21.1818 136.48 21.7652 136.48 22.4432V28H134.06V22.875C134.063 22.3409 133.927 21.9242 133.651 21.625C133.374 21.322 132.993 21.1705 132.509 21.1705C132.183 21.1705 131.895 21.2405 131.645 21.3807C131.399 21.5208 131.205 21.7254 131.065 21.9943C130.929 22.2595 130.859 22.5795 130.855 22.9545ZM146.795 16.3636H149.227V24.4773C149.227 25.2273 149.059 25.8788 148.722 26.4318C148.388 26.9848 147.924 27.411 147.33 27.7102C146.735 28.0095 146.044 28.1591 145.256 28.1591C144.555 28.1591 143.919 28.036 143.347 27.7898C142.778 27.5398 142.328 27.161 141.994 26.6534C141.661 26.142 141.496 25.5 141.5 24.7273H143.949C143.956 25.0341 144.019 25.2973 144.136 25.517C144.258 25.733 144.422 25.8996 144.631 26.017C144.843 26.1307 145.093 26.1875 145.381 26.1875C145.684 26.1875 145.939 26.1231 146.148 25.9943C146.36 25.8617 146.521 25.6686 146.631 25.4148C146.741 25.161 146.795 24.8485 146.795 24.4773V16.3636ZM153.705 28.1648C153.148 28.1648 152.652 28.0682 152.216 27.875C151.78 27.678 151.436 27.3883 151.182 27.0057C150.932 26.6193 150.807 26.1383 150.807 25.5625C150.807 25.0777 150.896 24.6705 151.074 24.3409C151.252 24.0114 151.494 23.7462 151.801 23.5455C152.108 23.3447 152.456 23.1932 152.847 23.0909C153.241 22.9886 153.653 22.9167 154.085 22.875C154.593 22.822 155.002 22.7727 155.312 22.7273C155.623 22.678 155.848 22.6061 155.989 22.5114C156.129 22.4167 156.199 22.2765 156.199 22.0909V22.0568C156.199 21.697 156.085 21.4186 155.858 21.2216C155.634 21.0246 155.316 20.9261 154.903 20.9261C154.468 20.9261 154.121 21.0227 153.864 21.2159C153.606 21.4053 153.436 21.6439 153.352 21.9318L151.114 21.75C151.227 21.2197 151.451 20.7614 151.784 20.375C152.117 19.9848 152.547 19.6856 153.074 19.4773C153.604 19.2652 154.218 19.1591 154.915 19.1591C155.4 19.1591 155.864 19.2159 156.307 19.3295C156.754 19.4432 157.15 19.6193 157.494 19.858C157.843 20.0966 158.117 20.4034 158.318 20.7784C158.519 21.1496 158.619 21.5947 158.619 22.1136V28H156.324V26.7898H156.256C156.116 27.0625 155.928 27.303 155.693 27.5114C155.458 27.7159 155.176 27.8769 154.847 27.9943C154.517 28.108 154.136 28.1648 153.705 28.1648ZM154.398 26.4943C154.754 26.4943 155.068 26.4242 155.341 26.2841C155.614 26.1402 155.828 25.947 155.983 25.7045C156.138 25.4621 156.216 25.1875 156.216 24.8807V23.9545C156.14 24.0038 156.036 24.0492 155.903 24.0909C155.775 24.1288 155.629 24.1648 155.466 24.1989C155.303 24.2292 155.14 24.2576 154.977 24.2841C154.814 24.3068 154.667 24.3277 154.534 24.3466C154.25 24.3883 154.002 24.4545 153.79 24.5455C153.578 24.6364 153.413 24.7595 153.295 24.9148C153.178 25.0663 153.119 25.2557 153.119 25.483C153.119 25.8125 153.239 26.0644 153.477 26.2386C153.72 26.4091 154.027 26.4943 154.398 26.4943ZM163.713 28.142C163.05 28.142 162.45 27.9716 161.912 27.6307C161.378 27.286 160.954 26.7803 160.639 26.1136C160.329 25.4432 160.173 24.6212 160.173 23.6477C160.173 22.6477 160.334 21.8163 160.656 21.1534C160.978 20.4867 161.406 19.9886 161.94 19.6591C162.478 19.3258 163.067 19.1591 163.707 19.1591C164.196 19.1591 164.603 19.2424 164.929 19.4091C165.259 19.572 165.524 19.7765 165.724 20.0227C165.929 20.2652 166.084 20.5038 166.19 20.7386H166.264V16.3636H168.679V28H166.293V26.6023H166.19C166.077 26.8447 165.916 27.0852 165.707 27.3239C165.503 27.5587 165.236 27.7538 164.906 27.9091C164.58 28.0644 164.183 28.142 163.713 28.142ZM164.48 26.2159C164.87 26.2159 165.2 26.1098 165.469 25.8977C165.741 25.6818 165.95 25.3807 166.094 24.9943C166.241 24.608 166.315 24.1553 166.315 23.6364C166.315 23.1174 166.243 22.6667 166.099 22.2841C165.955 21.9015 165.747 21.6061 165.474 21.3977C165.202 21.1894 164.87 21.0852 164.48 21.0852C164.082 21.0852 163.747 21.1932 163.474 21.4091C163.202 21.625 162.995 21.9242 162.855 22.3068C162.715 22.6894 162.645 23.1326 162.645 23.6364C162.645 24.1439 162.715 24.5928 162.855 24.983C162.999 25.3693 163.205 25.6723 163.474 25.892C163.747 26.108 164.082 26.2159 164.48 26.2159ZM172.391 28L170.016 19.2727H172.464L173.817 25.1364H173.896L175.305 19.2727H177.709L179.141 25.1023H179.214L180.544 19.2727H182.987L180.618 28H178.055L176.555 22.5114H176.447L174.947 28H172.391ZM186.767 28.1648C186.21 28.1648 185.714 28.0682 185.278 27.875C184.843 27.678 184.498 27.3883 184.244 27.0057C183.994 26.6193 183.869 26.1383 183.869 25.5625C183.869 25.0777 183.958 24.6705 184.136 24.3409C184.314 24.0114 184.557 23.7462 184.864 23.5455C185.17 23.3447 185.519 23.1932 185.909 23.0909C186.303 22.9886 186.716 22.9167 187.148 22.875C187.655 22.822 188.064 22.7727 188.375 22.7273C188.686 22.678 188.911 22.6061 189.051 22.5114C189.191 22.4167 189.261 22.2765 189.261 22.0909V22.0568C189.261 21.697 189.148 21.4186 188.92 21.2216C188.697 21.0246 188.379 20.9261 187.966 20.9261C187.53 20.9261 187.184 21.0227 186.926 21.2159C186.669 21.4053 186.498 21.6439 186.415 21.9318L184.176 21.75C184.29 21.2197 184.513 20.7614 184.847 20.375C185.18 19.9848 185.61 19.6856 186.136 19.4773C186.667 19.2652 187.28 19.1591 187.977 19.1591C188.462 19.1591 188.926 19.2159 189.369 19.3295C189.816 19.4432 190.212 19.6193 190.557 19.858C190.905 20.0966 191.18 20.4034 191.381 20.7784C191.581 21.1496 191.682 21.5947 191.682 22.1136V28H189.386V26.7898H189.318C189.178 27.0625 188.991 27.303 188.756 27.5114C188.521 27.7159 188.239 27.8769 187.909 27.9943C187.58 28.108 187.199 28.1648 186.767 28.1648ZM187.46 26.4943C187.816 26.4943 188.131 26.4242 188.403 26.2841C188.676 26.1402 188.89 25.947 189.045 25.7045C189.201 25.4621 189.278 25.1875 189.278 24.8807V23.9545C189.203 24.0038 189.098 24.0492 188.966 24.0909C188.837 24.1288 188.691 24.1648 188.528 24.1989C188.366 24.2292 188.203 24.2576 188.04 24.2841C187.877 24.3068 187.729 24.3277 187.597 24.3466C187.313 24.3883 187.064 24.4545 186.852 24.5455C186.64 24.6364 186.475 24.7595 186.358 24.9148C186.241 25.0663 186.182 25.2557 186.182 25.483C186.182 25.8125 186.301 26.0644 186.54 26.2386C186.782 26.4091 187.089 26.4943 187.46 26.4943ZM195.98 16.3636V28H193.56V16.3636H195.98Z" fill="#323238"/>
</svg>
