<svg width="392" height="44" viewBox="0 0 392 44" fill="none" xmlns="http://www.w3.org/2000/svg">
<rect x="55" y="8" width="28" height="28" rx="14" fill="#322A7D"/>
<path d="M70.935 17.76V27H69.003V19.944L67.001 21.232L66.119 19.79L69.171 17.76H70.935Z" fill="white"/>
<path d="M92.0114 28V16.3636H94.4716V21.4943H94.625L98.8125 16.3636H101.761L97.4432 21.5739L101.812 28H98.8693L95.6818 23.2159L94.4716 24.6932V28H92.0114ZM106.334 28.1705C105.436 28.1705 104.663 27.9886 104.016 27.625C103.372 27.2576 102.875 26.7386 102.527 26.0682C102.179 25.3939 102.004 24.5966 102.004 23.6761C102.004 22.7784 102.179 21.9905 102.527 21.3125C102.875 20.6345 103.366 20.1061 103.999 19.7273C104.635 19.3485 105.381 19.1591 106.237 19.1591C106.813 19.1591 107.349 19.2519 107.845 19.4375C108.345 19.6193 108.781 19.8939 109.152 20.2614C109.527 20.6288 109.819 21.0909 110.027 21.6477C110.235 22.2008 110.339 22.8485 110.339 23.5909V24.2557H102.97V22.7557H108.061C108.061 22.4072 107.985 22.0985 107.834 21.8295C107.682 21.5606 107.472 21.3504 107.203 21.1989C106.938 21.0436 106.629 20.9659 106.277 20.9659C105.91 20.9659 105.584 21.0511 105.3 21.2216C105.019 21.3883 104.8 21.6136 104.641 21.8977C104.482 22.178 104.4 22.4905 104.396 22.8352V24.2614C104.396 24.6932 104.476 25.0663 104.635 25.3807C104.798 25.6951 105.027 25.9375 105.322 26.108C105.618 26.2784 105.968 26.3636 106.374 26.3636C106.643 26.3636 106.889 26.3258 107.112 26.25C107.336 26.1742 107.527 26.0606 107.686 25.9091C107.845 25.7576 107.966 25.572 108.05 25.3523L110.288 25.5C110.175 26.0379 109.942 26.5076 109.589 26.9091C109.241 27.3068 108.79 27.6174 108.237 27.8409C107.688 28.0606 107.054 28.1705 106.334 28.1705ZM115.851 31.4545C115.067 31.4545 114.394 31.3466 113.834 31.1307C113.277 30.9186 112.834 30.6288 112.504 30.2614C112.175 29.8939 111.961 29.4811 111.862 29.0227L114.101 28.7216C114.169 28.8958 114.277 29.0587 114.425 29.2102C114.572 29.3617 114.768 29.483 115.01 29.5739C115.256 29.6686 115.555 29.7159 115.908 29.7159C116.434 29.7159 116.868 29.5871 117.209 29.3295C117.554 29.0758 117.726 28.6496 117.726 28.0511V26.4545H117.624C117.518 26.697 117.358 26.9261 117.146 27.142C116.934 27.358 116.661 27.5341 116.328 27.6705C115.995 27.8068 115.597 27.875 115.135 27.875C114.48 27.875 113.883 27.7235 113.345 27.4205C112.811 27.1136 112.385 26.6458 112.067 26.017C111.752 25.3845 111.595 24.5852 111.595 23.6193C111.595 22.6307 111.756 21.8049 112.078 21.142C112.4 20.4792 112.828 19.983 113.362 19.6534C113.9 19.3239 114.489 19.1591 115.129 19.1591C115.618 19.1591 116.027 19.2424 116.357 19.4091C116.686 19.572 116.951 19.7765 117.152 20.0227C117.357 20.2652 117.514 20.5038 117.624 20.7386H117.714V19.2727H120.118V28.0852C120.118 28.8277 119.936 29.4489 119.572 29.9489C119.209 30.4489 118.705 30.8239 118.061 31.0739C117.421 31.3277 116.684 31.4545 115.851 31.4545ZM115.902 26.0568C116.292 26.0568 116.622 25.9602 116.891 25.767C117.163 25.5701 117.372 25.2898 117.516 24.9261C117.663 24.5587 117.737 24.1193 117.737 23.608C117.737 23.0966 117.665 22.6534 117.521 22.2784C117.377 21.8996 117.169 21.6061 116.896 21.3977C116.624 21.1894 116.292 21.0852 115.902 21.0852C115.504 21.0852 115.169 21.1932 114.896 21.4091C114.624 21.6212 114.417 21.9167 114.277 22.2955C114.137 22.6742 114.067 23.1117 114.067 23.608C114.067 24.1117 114.137 24.5473 114.277 24.9148C114.421 25.2784 114.627 25.5606 114.896 25.7614C115.169 25.9583 115.504 26.0568 115.902 26.0568ZM122.044 28V19.2727H124.464V28H122.044ZM123.26 18.1477C122.9 18.1477 122.591 18.0284 122.334 17.7898C122.08 17.5473 121.953 17.2576 121.953 16.9205C121.953 16.5871 122.08 16.3011 122.334 16.0625C122.591 15.8201 122.9 15.6989 123.26 15.6989C123.62 15.6989 123.927 15.8201 124.18 16.0625C124.438 16.3011 124.567 16.5871 124.567 16.9205C124.567 17.2576 124.438 17.5473 124.18 17.7898C123.927 18.0284 123.62 18.1477 123.26 18.1477ZM128.892 28.1648C128.335 28.1648 127.839 28.0682 127.403 27.875C126.968 27.678 126.623 27.3883 126.369 27.0057C126.119 26.6193 125.994 26.1383 125.994 25.5625C125.994 25.0777 126.083 24.6705 126.261 24.3409C126.439 24.0114 126.682 23.7462 126.989 23.5455C127.295 23.3447 127.644 23.1932 128.034 23.0909C128.428 22.9886 128.841 22.9167 129.273 22.875C129.78 22.822 130.189 22.7727 130.5 22.7273C130.811 22.678 131.036 22.6061 131.176 22.5114C131.316 22.4167 131.386 22.2765 131.386 22.0909V22.0568C131.386 21.697 131.273 21.4186 131.045 21.2216C130.822 21.0246 130.504 20.9261 130.091 20.9261C129.655 20.9261 129.309 21.0227 129.051 21.2159C128.794 21.4053 128.623 21.6439 128.54 21.9318L126.301 21.75C126.415 21.2197 126.638 20.7614 126.972 20.375C127.305 19.9848 127.735 19.6856 128.261 19.4773C128.792 19.2652 129.405 19.1591 130.102 19.1591C130.587 19.1591 131.051 19.2159 131.494 19.3295C131.941 19.4432 132.337 19.6193 132.682 19.858C133.03 20.0966 133.305 20.4034 133.506 20.7784C133.706 21.1496 133.807 21.5947 133.807 22.1136V28H131.511V26.7898H131.443C131.303 27.0625 131.116 27.303 130.881 27.5114C130.646 27.7159 130.364 27.8769 130.034 27.9943C129.705 28.108 129.324 28.1648 128.892 28.1648ZM129.585 26.4943C129.941 26.4943 130.256 26.4242 130.528 26.2841C130.801 26.1402 131.015 25.947 131.17 25.7045C131.326 25.4621 131.403 25.1875 131.403 24.8807V23.9545C131.328 24.0038 131.223 24.0492 131.091 24.0909C130.962 24.1288 130.816 24.1648 130.653 24.1989C130.491 24.2292 130.328 24.2576 130.165 24.2841C130.002 24.3068 129.854 24.3277 129.722 24.3466C129.438 24.3883 129.189 24.4545 128.977 24.5455C128.765 24.6364 128.6 24.7595 128.483 24.9148C128.366 25.0663 128.307 25.2557 128.307 25.483C128.307 25.8125 128.426 26.0644 128.665 26.2386C128.907 26.4091 129.214 26.4943 129.585 26.4943ZM140.327 19.2727V21.0909H135.071V19.2727H140.327ZM136.264 17.1818H138.685V25.3182C138.685 25.5417 138.719 25.7159 138.787 25.8409C138.855 25.9621 138.95 26.0473 139.071 26.0966C139.196 26.1458 139.34 26.1705 139.503 26.1705C139.616 26.1705 139.73 26.161 139.844 26.142C139.957 26.1193 140.045 26.1023 140.105 26.0909L140.486 27.892C140.365 27.9299 140.194 27.9735 139.974 28.0227C139.755 28.0758 139.488 28.108 139.173 28.1193C138.59 28.142 138.079 28.0644 137.639 27.8864C137.204 27.7083 136.865 27.4318 136.622 27.0568C136.38 26.6818 136.26 26.2083 136.264 25.6364V17.1818ZM144.392 28.1648C143.835 28.1648 143.339 28.0682 142.903 27.875C142.468 27.678 142.123 27.3883 141.869 27.0057C141.619 26.6193 141.494 26.1383 141.494 25.5625C141.494 25.0777 141.583 24.6705 141.761 24.3409C141.939 24.0114 142.182 23.7462 142.489 23.5455C142.795 23.3447 143.144 23.1932 143.534 23.0909C143.928 22.9886 144.341 22.9167 144.773 22.875C145.28 22.822 145.689 22.7727 146 22.7273C146.311 22.678 146.536 22.6061 146.676 22.5114C146.816 22.4167 146.886 22.2765 146.886 22.0909V22.0568C146.886 21.697 146.773 21.4186 146.545 21.2216C146.322 21.0246 146.004 20.9261 145.591 20.9261C145.155 20.9261 144.809 21.0227 144.551 21.2159C144.294 21.4053 144.123 21.6439 144.04 21.9318L141.801 21.75C141.915 21.2197 142.138 20.7614 142.472 20.375C142.805 19.9848 143.235 19.6856 143.761 19.4773C144.292 19.2652 144.905 19.1591 145.602 19.1591C146.087 19.1591 146.551 19.2159 146.994 19.3295C147.441 19.4432 147.837 19.6193 148.182 19.858C148.53 20.0966 148.805 20.4034 149.006 20.7784C149.206 21.1496 149.307 21.5947 149.307 22.1136V28H147.011V26.7898H146.943C146.803 27.0625 146.616 27.303 146.381 27.5114C146.146 27.7159 145.864 27.8769 145.534 27.9943C145.205 28.108 144.824 28.1648 144.392 28.1648ZM145.085 26.4943C145.441 26.4943 145.756 26.4242 146.028 26.2841C146.301 26.1402 146.515 25.947 146.67 25.7045C146.826 25.4621 146.903 25.1875 146.903 24.8807V23.9545C146.828 24.0038 146.723 24.0492 146.591 24.0909C146.462 24.1288 146.316 24.1648 146.153 24.1989C145.991 24.2292 145.828 24.2576 145.665 24.2841C145.502 24.3068 145.354 24.3277 145.222 24.3466C144.938 24.3883 144.689 24.4545 144.477 24.5455C144.265 24.6364 144.1 24.7595 143.983 24.9148C143.866 25.0663 143.807 25.2557 143.807 25.483C143.807 25.8125 143.926 26.0644 144.165 26.2386C144.407 26.4091 144.714 26.4943 145.085 26.4943ZM153.605 22.9545V28H151.185V19.2727H153.491V20.8125H153.594C153.787 20.3049 154.111 19.9034 154.565 19.608C155.02 19.3087 155.571 19.1591 156.219 19.1591C156.825 19.1591 157.353 19.2917 157.804 19.5568C158.255 19.822 158.605 20.2008 158.855 20.6932C159.105 21.1818 159.23 21.7652 159.23 22.4432V28H156.81V22.875C156.813 22.3409 156.677 21.9242 156.401 21.625C156.124 21.322 155.743 21.1705 155.259 21.1705C154.933 21.1705 154.645 21.2405 154.395 21.3807C154.149 21.5208 153.955 21.7254 153.815 21.9943C153.679 22.2595 153.609 22.5795 153.605 22.9545Z" fill="#323238"/>
<g clip-path="url(#clip0_213_2000)">
<path d="M200.917 17L205.917 22L200.917 27" stroke="#323238" stroke-width="2" stroke-linecap="square"/>
</g>
<rect x="245" y="8" width="28" height="28" rx="14" fill="#E1E1E6"/>
<path d="M261.985 27H255.993V25.362L257.967 23.36C258.667 22.6413 259.152 22.0907 259.423 21.708C259.703 21.3253 259.843 20.9193 259.843 20.49C259.843 20.0513 259.726 19.7433 259.493 19.566C259.269 19.3887 258.947 19.3 258.527 19.3C257.902 19.3 257.22 19.356 256.483 19.468L256.147 19.51L256.049 18.012C256.964 17.732 257.911 17.592 258.891 17.592C260.851 17.592 261.831 18.474 261.831 20.238C261.831 20.9287 261.682 21.526 261.383 22.03C261.084 22.534 260.543 23.1453 259.759 23.864L258.149 25.32H261.985V27Z" fill="#8D8D99"/>
<path d="M289.199 16.3636H291.659V23.9205C291.659 24.7689 291.456 25.5114 291.051 26.1477C290.65 26.7841 290.087 27.2803 289.364 27.6364C288.64 27.9886 287.797 28.1648 286.835 28.1648C285.869 28.1648 285.025 27.9886 284.301 27.6364C283.578 27.2803 283.015 26.7841 282.614 26.1477C282.212 25.5114 282.011 24.7689 282.011 23.9205V16.3636H284.472V23.7102C284.472 24.1534 284.568 24.5473 284.761 24.892C284.958 25.2367 285.235 25.5076 285.591 25.7045C285.947 25.9015 286.362 26 286.835 26C287.313 26 287.727 25.9015 288.08 25.7045C288.436 25.5076 288.71 25.2367 288.903 24.892C289.1 24.5473 289.199 24.1534 289.199 23.7102V16.3636ZM293.638 31.2727V19.2727H296.024V20.7386H296.132C296.238 20.5038 296.392 20.2652 296.592 20.0227C296.797 19.7765 297.062 19.572 297.388 19.4091C297.717 19.2424 298.126 19.1591 298.615 19.1591C299.251 19.1591 299.839 19.3258 300.376 19.6591C300.914 19.9886 301.344 20.4867 301.666 21.1534C301.988 21.8163 302.149 22.6477 302.149 23.6477C302.149 24.6212 301.992 25.4432 301.678 26.1136C301.367 26.7803 300.943 27.286 300.405 27.6307C299.871 27.9716 299.272 28.142 298.609 28.142C298.14 28.142 297.74 28.0644 297.411 27.9091C297.085 27.7538 296.818 27.5587 296.609 27.3239C296.401 27.0852 296.242 26.8447 296.132 26.6023H296.058V31.2727H293.638ZM296.007 23.6364C296.007 24.1553 296.079 24.608 296.223 24.9943C296.367 25.3807 296.575 25.6818 296.848 25.8977C297.121 26.1098 297.452 26.2159 297.842 26.2159C298.236 26.2159 298.57 26.108 298.842 25.892C299.115 25.6723 299.321 25.3693 299.462 24.983C299.606 24.5928 299.678 24.1439 299.678 23.6364C299.678 23.1326 299.607 22.6894 299.467 22.3068C299.327 21.9242 299.121 21.625 298.848 21.4091C298.575 21.1932 298.24 21.0852 297.842 21.0852C297.448 21.0852 297.115 21.1894 296.842 21.3977C296.573 21.6061 296.367 21.9015 296.223 22.2841C296.079 22.6667 296.007 23.1174 296.007 23.6364ZM306.183 16.3636V28H303.763V16.3636H306.183ZM312.065 28.1705C311.183 28.1705 310.42 27.983 309.776 27.608C309.135 27.2292 308.641 26.7027 308.293 26.0284C307.944 25.3504 307.77 24.5644 307.77 23.6705C307.77 22.7689 307.944 21.9811 308.293 21.3068C308.641 20.6288 309.135 20.1023 309.776 19.7273C310.42 19.3485 311.183 19.1591 312.065 19.1591C312.948 19.1591 313.709 19.3485 314.349 19.7273C314.993 20.1023 315.49 20.6288 315.838 21.3068C316.187 21.9811 316.361 22.7689 316.361 23.6705C316.361 24.5644 316.187 25.3504 315.838 26.0284C315.49 26.7027 314.993 27.2292 314.349 27.608C313.709 27.983 312.948 28.1705 312.065 28.1705ZM312.077 26.2955C312.478 26.2955 312.813 26.1818 313.082 25.9545C313.351 25.7235 313.554 25.4091 313.69 25.0114C313.83 24.6136 313.901 24.161 313.901 23.6534C313.901 23.1458 313.83 22.6932 313.69 22.2955C313.554 21.8977 313.351 21.5833 313.082 21.3523C312.813 21.1212 312.478 21.0057 312.077 21.0057C311.671 21.0057 311.33 21.1212 311.054 21.3523C310.781 21.5833 310.575 21.8977 310.435 22.2955C310.298 22.6932 310.23 23.1458 310.23 23.6534C310.23 24.161 310.298 24.6136 310.435 25.0114C310.575 25.4091 310.781 25.7235 311.054 25.9545C311.33 26.1818 311.671 26.2955 312.077 26.2955ZM320.423 28.1648C319.866 28.1648 319.37 28.0682 318.935 27.875C318.499 27.678 318.154 27.3883 317.901 27.0057C317.651 26.6193 317.526 26.1383 317.526 25.5625C317.526 25.0777 317.615 24.6705 317.793 24.3409C317.971 24.0114 318.213 23.7462 318.52 23.5455C318.827 23.3447 319.175 23.1932 319.565 23.0909C319.959 22.9886 320.372 22.9167 320.804 22.875C321.312 22.822 321.721 22.7727 322.031 22.7273C322.342 22.678 322.567 22.6061 322.707 22.5114C322.848 22.4167 322.918 22.2765 322.918 22.0909V22.0568C322.918 21.697 322.804 21.4186 322.577 21.2216C322.353 21.0246 322.035 20.9261 321.622 20.9261C321.187 20.9261 320.84 21.0227 320.582 21.2159C320.325 21.4053 320.154 21.6439 320.071 21.9318L317.832 21.75C317.946 21.2197 318.17 20.7614 318.503 20.375C318.836 19.9848 319.266 19.6856 319.793 19.4773C320.323 19.2652 320.937 19.1591 321.634 19.1591C322.118 19.1591 322.582 19.2159 323.026 19.3295C323.473 19.4432 323.868 19.6193 324.213 19.858C324.562 20.0966 324.836 20.4034 325.037 20.7784C325.238 21.1496 325.338 21.5947 325.338 22.1136V28H323.043V26.7898H322.974C322.834 27.0625 322.647 27.303 322.412 27.5114C322.177 27.7159 321.895 27.8769 321.565 27.9943C321.236 28.108 320.855 28.1648 320.423 28.1648ZM321.116 26.4943C321.473 26.4943 321.787 26.4242 322.06 26.2841C322.332 26.1402 322.546 25.947 322.702 25.7045C322.857 25.4621 322.935 25.1875 322.935 24.8807V23.9545C322.859 24.0038 322.755 24.0492 322.622 24.0909C322.493 24.1288 322.348 24.1648 322.185 24.1989C322.022 24.2292 321.859 24.2576 321.696 24.2841C321.533 24.3068 321.385 24.3277 321.253 24.3466C320.969 24.3883 320.721 24.4545 320.509 24.5455C320.296 24.6364 320.132 24.7595 320.014 24.9148C319.897 25.0663 319.838 25.2557 319.838 25.483C319.838 25.8125 319.957 26.0644 320.196 26.2386C320.438 26.4091 320.745 26.4943 321.116 26.4943ZM330.432 28.142C329.769 28.142 329.169 27.9716 328.631 27.6307C328.097 27.286 327.672 26.7803 327.358 26.1136C327.047 25.4432 326.892 24.6212 326.892 23.6477C326.892 22.6477 327.053 21.8163 327.375 21.1534C327.697 20.4867 328.125 19.9886 328.659 19.6591C329.197 19.3258 329.786 19.1591 330.426 19.1591C330.915 19.1591 331.322 19.2424 331.648 19.4091C331.977 19.572 332.242 19.7765 332.443 20.0227C332.648 20.2652 332.803 20.5038 332.909 20.7386H332.983V16.3636H335.398V28H333.011V26.6023H332.909C332.795 26.8447 332.634 27.0852 332.426 27.3239C332.222 27.5587 331.955 27.7538 331.625 27.9091C331.299 28.0644 330.902 28.142 330.432 28.142ZM331.199 26.2159C331.589 26.2159 331.919 26.1098 332.188 25.8977C332.46 25.6818 332.669 25.3807 332.812 24.9943C332.96 24.608 333.034 24.1553 333.034 23.6364C333.034 23.1174 332.962 22.6667 332.818 22.2841C332.674 21.9015 332.466 21.6061 332.193 21.3977C331.92 21.1894 331.589 21.0852 331.199 21.0852C330.801 21.0852 330.466 21.1932 330.193 21.4091C329.92 21.625 329.714 21.9242 329.574 22.3068C329.434 22.6894 329.364 23.1326 329.364 23.6364C329.364 24.1439 329.434 24.5928 329.574 24.983C329.718 25.3693 329.924 25.6723 330.193 25.892C330.466 26.108 330.801 26.2159 331.199 26.2159Z" fill="#8D8D99"/>
<defs>
<clipPath id="clip0_213_2000">
<rect width="20" height="20" fill="white" transform="translate(193 12)"/>
</clipPath>
</defs>
</svg>
