<svg width="392" height="45" viewBox="0 0 392 45" fill="none" xmlns="http://www.w3.org/2000/svg">
<rect x="64.5" y="8.5" width="28" height="28" rx="14" fill="#E1E1E6"/>
<path d="M80.435 18.26V27.5H78.503V20.444L76.501 21.732L75.619 20.29L78.671 18.26H80.435Z" fill="#8D8D99"/>
<path d="M101.511 28.5V16.8636H106.102C106.985 16.8636 107.737 17.0322 108.358 17.3693C108.979 17.7027 109.453 18.1667 109.778 18.7614C110.108 19.3523 110.273 20.0341 110.273 20.8068C110.273 21.5795 110.106 22.2614 109.773 22.8523C109.439 23.4432 108.956 23.9034 108.324 24.233C107.695 24.5625 106.934 24.7273 106.04 24.7273H103.114V22.7557H105.642C106.116 22.7557 106.506 22.6742 106.812 22.5114C107.123 22.3447 107.354 22.1155 107.506 21.8239C107.661 21.5284 107.739 21.1894 107.739 20.8068C107.739 20.4205 107.661 20.0833 107.506 19.7955C107.354 19.5038 107.123 19.2784 106.812 19.1193C106.502 18.9564 106.108 18.875 105.631 18.875H103.972V28.5H101.511ZM111.825 28.5V19.7727H114.172V21.2955H114.263C114.422 20.7538 114.689 20.3447 115.064 20.0682C115.439 19.7879 115.871 19.6477 116.359 19.6477C116.481 19.6477 116.611 19.6553 116.751 19.6705C116.892 19.6856 117.015 19.7064 117.121 19.733V21.8807C117.007 21.8466 116.85 21.8163 116.649 21.7898C116.448 21.7633 116.265 21.75 116.098 21.75C115.742 21.75 115.424 21.8277 115.143 21.983C114.867 22.1345 114.647 22.3466 114.484 22.6193C114.325 22.892 114.246 23.2064 114.246 23.5625V28.5H111.825ZM121.909 28.6705C121.027 28.6705 120.263 28.483 119.619 28.108C118.979 27.7292 118.485 27.2027 118.136 26.5284C117.788 25.8504 117.614 25.0644 117.614 24.1705C117.614 23.2689 117.788 22.4811 118.136 21.8068C118.485 21.1288 118.979 20.6023 119.619 20.2273C120.263 19.8485 121.027 19.6591 121.909 19.6591C122.792 19.6591 123.553 19.8485 124.193 20.2273C124.837 20.6023 125.333 21.1288 125.682 21.8068C126.03 22.4811 126.205 23.2689 126.205 24.1705C126.205 25.0644 126.03 25.8504 125.682 26.5284C125.333 27.2027 124.837 27.7292 124.193 28.108C123.553 28.483 122.792 28.6705 121.909 28.6705ZM121.92 26.7955C122.322 26.7955 122.657 26.6818 122.926 26.4545C123.195 26.2235 123.398 25.9091 123.534 25.5114C123.674 25.1136 123.744 24.661 123.744 24.1534C123.744 23.6458 123.674 23.1932 123.534 22.7955C123.398 22.3977 123.195 22.0833 122.926 21.8523C122.657 21.6212 122.322 21.5057 121.92 21.5057C121.515 21.5057 121.174 21.6212 120.898 21.8523C120.625 22.0833 120.419 22.3977 120.278 22.7955C120.142 23.1932 120.074 23.6458 120.074 24.1534C120.074 24.661 120.142 25.1136 120.278 25.5114C120.419 25.9091 120.625 26.2235 120.898 26.4545C121.174 26.6818 121.515 26.7955 121.92 26.7955ZM132.472 19.7727V21.5909H127.085V19.7727H132.472ZM128.318 28.5V19.142C128.318 18.5095 128.441 17.9848 128.688 17.5682C128.938 17.1515 129.278 16.839 129.71 16.6307C130.142 16.4223 130.633 16.3182 131.182 16.3182C131.553 16.3182 131.892 16.3466 132.199 16.4034C132.509 16.4602 132.741 16.5114 132.892 16.5568L132.46 18.375C132.366 18.3447 132.248 18.3163 132.108 18.2898C131.972 18.2633 131.831 18.25 131.688 18.25C131.331 18.25 131.083 18.3333 130.943 18.5C130.803 18.6629 130.733 18.892 130.733 19.1875V28.5H128.318ZM133.95 28.5V19.7727H136.371V28.5H133.95ZM135.166 18.6477C134.806 18.6477 134.498 18.5284 134.24 18.2898C133.986 18.0473 133.859 17.7576 133.859 17.4205C133.859 17.0871 133.986 16.8011 134.24 16.5625C134.498 16.3201 134.806 16.1989 135.166 16.1989C135.526 16.1989 135.833 16.3201 136.087 16.5625C136.344 16.8011 136.473 17.0871 136.473 17.4205C136.473 17.7576 136.344 18.0473 136.087 18.2898C135.833 18.5284 135.526 18.6477 135.166 18.6477ZM140.73 16.8636V28.5H138.31V16.8636H140.73ZM146.646 28.6705C145.749 28.6705 144.976 28.4886 144.328 28.125C143.684 27.7576 143.188 27.2386 142.839 26.5682C142.491 25.8939 142.317 25.0966 142.317 24.1761C142.317 23.2784 142.491 22.4905 142.839 21.8125C143.188 21.1345 143.679 20.6061 144.311 20.2273C144.947 19.8485 145.694 19.6591 146.55 19.6591C147.125 19.6591 147.661 19.7519 148.158 19.9375C148.658 20.1193 149.093 20.3939 149.464 20.7614C149.839 21.1288 150.131 21.5909 150.339 22.1477C150.548 22.7008 150.652 23.3485 150.652 24.0909V24.7557H143.283V23.2557H148.374C148.374 22.9072 148.298 22.5985 148.146 22.3295C147.995 22.0606 147.785 21.8504 147.516 21.6989C147.25 21.5436 146.942 21.4659 146.589 21.4659C146.222 21.4659 145.896 21.5511 145.612 21.7216C145.332 21.8883 145.112 22.1136 144.953 22.3977C144.794 22.678 144.713 22.9905 144.709 23.3352V24.7614C144.709 25.1932 144.788 25.5663 144.947 25.8807C145.11 26.1951 145.339 26.4375 145.635 26.608C145.93 26.7784 146.281 26.8636 146.686 26.8636C146.955 26.8636 147.201 26.8258 147.425 26.75C147.648 26.6742 147.839 26.5606 147.999 26.4091C148.158 26.2576 148.279 26.072 148.362 25.8523L150.601 26C150.487 26.5379 150.254 27.0076 149.902 27.4091C149.554 27.8068 149.103 28.1174 148.55 28.3409C148 28.5606 147.366 28.6705 146.646 28.6705Z" fill="#8D8D99"/>
<g clip-path="url(#clip0_213_2179)">
<path d="M191.417 17.5L196.417 22.5L191.417 27.5" stroke="#323238" stroke-width="2" stroke-linecap="square"/>
</g>
<rect x="235.5" y="8.5" width="28" height="28" rx="14" fill="#322A7D"/>
<path d="M252.485 27.5H246.493V25.862L248.467 23.86C249.167 23.1413 249.652 22.5907 249.923 22.208C250.203 21.8253 250.343 21.4193 250.343 20.99C250.343 20.5513 250.226 20.2433 249.993 20.066C249.769 19.8887 249.447 19.8 249.027 19.8C248.402 19.8 247.72 19.856 246.983 19.968L246.647 20.01L246.549 18.512C247.464 18.232 248.411 18.092 249.391 18.092C251.351 18.092 252.331 18.974 252.331 20.738C252.331 21.4287 252.182 22.026 251.883 22.53C251.584 23.034 251.043 23.6453 250.259 24.364L248.649 25.82H252.485V27.5Z" fill="white"/>
<path d="M279.699 16.8636H282.159V24.4205C282.159 25.2689 281.956 26.0114 281.551 26.6477C281.15 27.2841 280.587 27.7803 279.864 28.1364C279.14 28.4886 278.297 28.6648 277.335 28.6648C276.369 28.6648 275.525 28.4886 274.801 28.1364C274.078 27.7803 273.515 27.2841 273.114 26.6477C272.712 26.0114 272.511 25.2689 272.511 24.4205V16.8636H274.972V24.2102C274.972 24.6534 275.068 25.0473 275.261 25.392C275.458 25.7367 275.735 26.0076 276.091 26.2045C276.447 26.4015 276.862 26.5 277.335 26.5C277.813 26.5 278.227 26.4015 278.58 26.2045C278.936 26.0076 279.21 25.7367 279.403 25.392C279.6 25.0473 279.699 24.6534 279.699 24.2102V16.8636ZM284.138 31.7727V19.7727H286.524V21.2386H286.632C286.738 21.0038 286.892 20.7652 287.092 20.5227C287.297 20.2765 287.562 20.072 287.888 19.9091C288.217 19.7424 288.626 19.6591 289.115 19.6591C289.751 19.6591 290.339 19.8258 290.876 20.1591C291.414 20.4886 291.844 20.9867 292.166 21.6534C292.488 22.3163 292.649 23.1477 292.649 24.1477C292.649 25.1212 292.492 25.9432 292.178 26.6136C291.867 27.2803 291.443 27.786 290.905 28.1307C290.371 28.4716 289.772 28.642 289.109 28.642C288.64 28.642 288.24 28.5644 287.911 28.4091C287.585 28.2538 287.318 28.0587 287.109 27.8239C286.901 27.5852 286.742 27.3447 286.632 27.1023H286.558V31.7727H284.138ZM286.507 24.1364C286.507 24.6553 286.579 25.108 286.723 25.4943C286.867 25.8807 287.075 26.1818 287.348 26.3977C287.621 26.6098 287.952 26.7159 288.342 26.7159C288.736 26.7159 289.07 26.608 289.342 26.392C289.615 26.1723 289.821 25.8693 289.962 25.483C290.106 25.0928 290.178 24.6439 290.178 24.1364C290.178 23.6326 290.107 23.1894 289.967 22.8068C289.827 22.4242 289.621 22.125 289.348 21.9091C289.075 21.6932 288.74 21.5852 288.342 21.5852C287.948 21.5852 287.615 21.6894 287.342 21.8977C287.073 22.1061 286.867 22.4015 286.723 22.7841C286.579 23.1667 286.507 23.6174 286.507 24.1364ZM296.683 16.8636V28.5H294.263V16.8636H296.683ZM302.565 28.6705C301.683 28.6705 300.92 28.483 300.276 28.108C299.635 27.7292 299.141 27.2027 298.793 26.5284C298.444 25.8504 298.27 25.0644 298.27 24.1705C298.27 23.2689 298.444 22.4811 298.793 21.8068C299.141 21.1288 299.635 20.6023 300.276 20.2273C300.92 19.8485 301.683 19.6591 302.565 19.6591C303.448 19.6591 304.209 19.8485 304.849 20.2273C305.493 20.6023 305.99 21.1288 306.338 21.8068C306.687 22.4811 306.861 23.2689 306.861 24.1705C306.861 25.0644 306.687 25.8504 306.338 26.5284C305.99 27.2027 305.493 27.7292 304.849 28.108C304.209 28.483 303.448 28.6705 302.565 28.6705ZM302.577 26.7955C302.978 26.7955 303.313 26.6818 303.582 26.4545C303.851 26.2235 304.054 25.9091 304.19 25.5114C304.33 25.1136 304.401 24.661 304.401 24.1534C304.401 23.6458 304.33 23.1932 304.19 22.7955C304.054 22.3977 303.851 22.0833 303.582 21.8523C303.313 21.6212 302.978 21.5057 302.577 21.5057C302.171 21.5057 301.83 21.6212 301.554 21.8523C301.281 22.0833 301.075 22.3977 300.935 22.7955C300.798 23.1932 300.73 23.6458 300.73 24.1534C300.73 24.661 300.798 25.1136 300.935 25.5114C301.075 25.9091 301.281 26.2235 301.554 26.4545C301.83 26.6818 302.171 26.7955 302.577 26.7955ZM310.923 28.6648C310.366 28.6648 309.87 28.5682 309.435 28.375C308.999 28.178 308.654 27.8883 308.401 27.5057C308.151 27.1193 308.026 26.6383 308.026 26.0625C308.026 25.5777 308.115 25.1705 308.293 24.8409C308.471 24.5114 308.713 24.2462 309.02 24.0455C309.327 23.8447 309.675 23.6932 310.065 23.5909C310.459 23.4886 310.872 23.4167 311.304 23.375C311.812 23.322 312.221 23.2727 312.531 23.2273C312.842 23.178 313.067 23.1061 313.207 23.0114C313.348 22.9167 313.418 22.7765 313.418 22.5909V22.5568C313.418 22.197 313.304 21.9186 313.077 21.7216C312.853 21.5246 312.535 21.4261 312.122 21.4261C311.687 21.4261 311.34 21.5227 311.082 21.7159C310.825 21.9053 310.654 22.1439 310.571 22.4318L308.332 22.25C308.446 21.7197 308.67 21.2614 309.003 20.875C309.336 20.4848 309.766 20.1856 310.293 19.9773C310.823 19.7652 311.437 19.6591 312.134 19.6591C312.618 19.6591 313.082 19.7159 313.526 19.8295C313.973 19.9432 314.368 20.1193 314.713 20.358C315.062 20.5966 315.336 20.9034 315.537 21.2784C315.738 21.6496 315.838 22.0947 315.838 22.6136V28.5H313.543V27.2898H313.474C313.334 27.5625 313.147 27.803 312.912 28.0114C312.677 28.2159 312.395 28.3769 312.065 28.4943C311.736 28.608 311.355 28.6648 310.923 28.6648ZM311.616 26.9943C311.973 26.9943 312.287 26.9242 312.56 26.7841C312.832 26.6402 313.046 26.447 313.202 26.2045C313.357 25.9621 313.435 25.6875 313.435 25.3807V24.4545C313.359 24.5038 313.255 24.5492 313.122 24.5909C312.993 24.6288 312.848 24.6648 312.685 24.6989C312.522 24.7292 312.359 24.7576 312.196 24.7841C312.033 24.8068 311.885 24.8277 311.753 24.8466C311.469 24.8883 311.221 24.9545 311.009 25.0455C310.796 25.1364 310.632 25.2595 310.514 25.4148C310.397 25.5663 310.338 25.7557 310.338 25.983C310.338 26.3125 310.457 26.5644 310.696 26.7386C310.938 26.9091 311.245 26.9943 311.616 26.9943ZM320.932 28.642C320.269 28.642 319.669 28.4716 319.131 28.1307C318.597 27.786 318.172 27.2803 317.858 26.6136C317.547 25.9432 317.392 25.1212 317.392 24.1477C317.392 23.1477 317.553 22.3163 317.875 21.6534C318.197 20.9867 318.625 20.4886 319.159 20.1591C319.697 19.8258 320.286 19.6591 320.926 19.6591C321.415 19.6591 321.822 19.7424 322.148 19.9091C322.477 20.072 322.742 20.2765 322.943 20.5227C323.148 20.7652 323.303 21.0038 323.409 21.2386H323.483V16.8636H325.898V28.5H323.511V27.1023H323.409C323.295 27.3447 323.134 27.5852 322.926 27.8239C322.722 28.0587 322.455 28.2538 322.125 28.4091C321.799 28.5644 321.402 28.642 320.932 28.642ZM321.699 26.7159C322.089 26.7159 322.419 26.6098 322.688 26.3977C322.96 26.1818 323.169 25.8807 323.312 25.4943C323.46 25.108 323.534 24.6553 323.534 24.1364C323.534 23.6174 323.462 23.1667 323.318 22.7841C323.174 22.4015 322.966 22.1061 322.693 21.8977C322.42 21.6894 322.089 21.5852 321.699 21.5852C321.301 21.5852 320.966 21.6932 320.693 21.9091C320.42 22.125 320.214 22.4242 320.074 22.8068C319.934 23.1894 319.864 23.6326 319.864 24.1364C319.864 24.6439 319.934 25.0928 320.074 25.483C320.218 25.8693 320.424 26.1723 320.693 26.392C320.966 26.608 321.301 26.7159 321.699 26.7159Z" fill="#354052"/>
<defs>
<clipPath id="clip0_213_2179">
<rect width="20" height="20" fill="white" transform="translate(183.5 12.5)"/>
</clipPath>
</defs>
</svg>
