<svg width="392" height="44" viewBox="0 0 392 44" fill="none" xmlns="http://www.w3.org/2000/svg">
<rect x="98.5" y="8" width="28" height="28" rx="14" fill="#322A7D"/>
<path d="M114.435 17.76V27H112.503V19.944L110.501 21.232L109.619 19.79L112.671 17.76H114.435Z" fill="white"/>
<path d="M135.511 28V16.3636H140.102C140.985 16.3636 141.737 16.5322 142.358 16.8693C142.979 17.2027 143.453 17.6667 143.778 18.2614C144.108 18.8523 144.273 19.5341 144.273 20.3068C144.273 21.0795 144.106 21.7614 143.773 22.3523C143.439 22.9432 142.956 23.4034 142.324 23.733C141.695 24.0625 140.934 24.2273 140.04 24.2273H137.114V22.2557H139.642C140.116 22.2557 140.506 22.1742 140.812 22.0114C141.123 21.8447 141.354 21.6155 141.506 21.3239C141.661 21.0284 141.739 20.6894 141.739 20.3068C141.739 19.9205 141.661 19.5833 141.506 19.2955C141.354 19.0038 141.123 18.7784 140.812 18.6193C140.502 18.4564 140.108 18.375 139.631 18.375H137.972V28H135.511ZM149.662 28.1705C148.764 28.1705 147.991 27.9886 147.344 27.625C146.7 27.2576 146.204 26.7386 145.855 26.0682C145.507 25.3939 145.332 24.5966 145.332 23.6761C145.332 22.7784 145.507 21.9905 145.855 21.3125C146.204 20.6345 146.694 20.1061 147.327 19.7273C147.963 19.3485 148.709 19.1591 149.565 19.1591C150.141 19.1591 150.677 19.2519 151.173 19.4375C151.673 19.6193 152.109 19.8939 152.48 20.2614C152.855 20.6288 153.147 21.0909 153.355 21.6477C153.563 22.2008 153.668 22.8485 153.668 23.5909V24.2557H146.298V22.7557H151.389C151.389 22.4072 151.313 22.0985 151.162 21.8295C151.01 21.5606 150.8 21.3504 150.531 21.1989C150.266 21.0436 149.957 20.9659 149.605 20.9659C149.238 20.9659 148.912 21.0511 148.628 21.2216C148.348 21.3883 148.128 21.6136 147.969 21.8977C147.81 22.178 147.728 22.4905 147.724 22.8352V24.2614C147.724 24.6932 147.804 25.0663 147.963 25.3807C148.126 25.6951 148.355 25.9375 148.651 26.108C148.946 26.2784 149.296 26.3636 149.702 26.3636C149.971 26.3636 150.217 26.3258 150.44 26.25C150.664 26.1742 150.855 26.0606 151.014 25.9091C151.173 25.7576 151.295 25.572 151.378 25.3523L153.616 25.5C153.503 26.0379 153.27 26.5076 152.918 26.9091C152.569 27.3068 152.118 27.6174 151.565 27.8409C151.016 28.0606 150.382 28.1705 149.662 28.1705ZM155.247 28V19.2727H157.594V20.7955H157.685C157.844 20.2538 158.111 19.8447 158.486 19.5682C158.861 19.2879 159.293 19.1477 159.781 19.1477C159.902 19.1477 160.033 19.1553 160.173 19.1705C160.313 19.1856 160.437 19.2064 160.543 19.233V21.3807C160.429 21.3466 160.272 21.3163 160.071 21.2898C159.87 21.2633 159.687 21.25 159.52 21.25C159.164 21.25 158.846 21.3277 158.565 21.483C158.289 21.6345 158.069 21.8466 157.906 22.1193C157.747 22.392 157.668 22.7064 157.668 23.0625V28H155.247ZM161.794 31.2727V19.2727H164.18V20.7386H164.288C164.394 20.5038 164.548 20.2652 164.749 20.0227C164.953 19.7765 165.218 19.572 165.544 19.4091C165.874 19.2424 166.283 19.1591 166.771 19.1591C167.408 19.1591 167.995 19.3258 168.533 19.6591C169.071 19.9886 169.5 20.4867 169.822 21.1534C170.144 21.8163 170.305 22.6477 170.305 23.6477C170.305 24.6212 170.148 25.4432 169.834 26.1136C169.523 26.7803 169.099 27.286 168.561 27.6307C168.027 27.9716 167.429 28.142 166.766 28.142C166.296 28.142 165.896 28.0644 165.567 27.9091C165.241 27.7538 164.974 27.5587 164.766 27.3239C164.557 27.0852 164.398 26.8447 164.288 26.6023H164.214V31.2727H161.794ZM164.163 23.6364C164.163 24.1553 164.235 24.608 164.379 24.9943C164.523 25.3807 164.732 25.6818 165.004 25.8977C165.277 26.1098 165.608 26.2159 165.999 26.2159C166.393 26.2159 166.726 26.108 166.999 25.892C167.271 25.6723 167.478 25.3693 167.618 24.983C167.762 24.5928 167.834 24.1439 167.834 23.6364C167.834 23.1326 167.764 22.6894 167.624 22.3068C167.483 21.9242 167.277 21.625 167.004 21.4091C166.732 21.1932 166.396 21.0852 165.999 21.0852C165.605 21.0852 165.271 21.1894 164.999 21.3977C164.73 21.6061 164.523 21.9015 164.379 22.2841C164.235 22.6667 164.163 23.1174 164.163 23.6364ZM171.919 28V19.2727H174.339V28H171.919ZM173.135 18.1477C172.775 18.1477 172.466 18.0284 172.209 17.7898C171.955 17.5473 171.828 17.2576 171.828 16.9205C171.828 16.5871 171.955 16.3011 172.209 16.0625C172.466 15.8201 172.775 15.6989 173.135 15.6989C173.495 15.6989 173.802 15.8201 174.055 16.0625C174.313 16.3011 174.442 16.5871 174.442 16.9205C174.442 17.2576 174.313 17.5473 174.055 17.7898C173.802 18.0284 173.495 18.1477 173.135 18.1477ZM178.699 22.9545V28H176.278V19.2727H178.585V20.8125H178.688C178.881 20.3049 179.205 19.9034 179.659 19.608C180.114 19.3087 180.665 19.1591 181.312 19.1591C181.919 19.1591 182.447 19.2917 182.898 19.5568C183.348 19.822 183.699 20.2008 183.949 20.6932C184.199 21.1818 184.324 21.7652 184.324 22.4432V28H181.903V22.875C181.907 22.3409 181.771 21.9242 181.494 21.625C181.218 21.322 180.837 21.1705 180.352 21.1705C180.027 21.1705 179.739 21.2405 179.489 21.3807C179.242 21.5208 179.049 21.7254 178.909 21.9943C178.773 22.2595 178.703 22.5795 178.699 22.9545ZM189.447 28.142C188.785 28.142 188.184 27.9716 187.646 27.6307C187.112 27.286 186.688 26.7803 186.374 26.1136C186.063 25.4432 185.908 24.6212 185.908 23.6477C185.908 22.6477 186.069 21.8163 186.391 21.1534C186.713 20.4867 187.141 19.9886 187.675 19.6591C188.213 19.3258 188.802 19.1591 189.442 19.1591C189.93 19.1591 190.338 19.2424 190.663 19.4091C190.993 19.572 191.258 19.7765 191.459 20.0227C191.663 20.2652 191.819 20.5038 191.925 20.7386H191.999V16.3636H194.413V28H192.027V26.6023H191.925C191.811 26.8447 191.65 27.0852 191.442 27.3239C191.237 27.5587 190.97 27.7538 190.641 27.9091C190.315 28.0644 189.917 28.142 189.447 28.142ZM190.214 26.2159C190.605 26.2159 190.934 26.1098 191.203 25.8977C191.476 25.6818 191.684 25.3807 191.828 24.9943C191.976 24.608 192.05 24.1553 192.05 23.6364C192.05 23.1174 191.978 22.6667 191.834 22.2841C191.69 21.9015 191.482 21.6061 191.209 21.3977C190.936 21.1894 190.605 21.0852 190.214 21.0852C189.817 21.0852 189.482 21.1932 189.209 21.4091C188.936 21.625 188.73 21.9242 188.589 22.3068C188.449 22.6894 188.379 23.1326 188.379 23.6364C188.379 24.1439 188.449 24.5928 188.589 24.983C188.733 25.3693 188.94 25.6723 189.209 25.892C189.482 26.108 189.817 26.2159 190.214 26.2159ZM198.892 28.1648C198.335 28.1648 197.839 28.0682 197.403 27.875C196.968 27.678 196.623 27.3883 196.369 27.0057C196.119 26.6193 195.994 26.1383 195.994 25.5625C195.994 25.0777 196.083 24.6705 196.261 24.3409C196.439 24.0114 196.682 23.7462 196.989 23.5455C197.295 23.3447 197.644 23.1932 198.034 23.0909C198.428 22.9886 198.841 22.9167 199.273 22.875C199.78 22.822 200.189 22.7727 200.5 22.7273C200.811 22.678 201.036 22.6061 201.176 22.5114C201.316 22.4167 201.386 22.2765 201.386 22.0909V22.0568C201.386 21.697 201.273 21.4186 201.045 21.2216C200.822 21.0246 200.504 20.9261 200.091 20.9261C199.655 20.9261 199.309 21.0227 199.051 21.2159C198.794 21.4053 198.623 21.6439 198.54 21.9318L196.301 21.75C196.415 21.2197 196.638 20.7614 196.972 20.375C197.305 19.9848 197.735 19.6856 198.261 19.4773C198.792 19.2652 199.405 19.1591 200.102 19.1591C200.587 19.1591 201.051 19.2159 201.494 19.3295C201.941 19.4432 202.337 19.6193 202.682 19.858C203.03 20.0966 203.305 20.4034 203.506 20.7784C203.706 21.1496 203.807 21.5947 203.807 22.1136V28H201.511V26.7898H201.443C201.303 27.0625 201.116 27.303 200.881 27.5114C200.646 27.7159 200.364 27.8769 200.034 27.9943C199.705 28.108 199.324 28.1648 198.892 28.1648ZM199.585 26.4943C199.941 26.4943 200.256 26.4242 200.528 26.2841C200.801 26.1402 201.015 25.947 201.17 25.7045C201.326 25.4621 201.403 25.1875 201.403 24.8807V23.9545C201.328 24.0038 201.223 24.0492 201.091 24.0909C200.962 24.1288 200.816 24.1648 200.653 24.1989C200.491 24.2292 200.328 24.2576 200.165 24.2841C200.002 24.3068 199.854 24.3277 199.722 24.3466C199.438 24.3883 199.189 24.4545 198.977 24.5455C198.765 24.6364 198.6 24.7595 198.483 24.9148C198.366 25.0663 198.307 25.2557 198.307 25.483C198.307 25.8125 198.426 26.0644 198.665 26.2386C198.907 26.4091 199.214 26.4943 199.585 26.4943ZM208.105 22.9545V28H205.685V16.3636H208.037V20.8125H208.139C208.336 20.2973 208.654 19.8939 209.094 19.6023C209.533 19.3068 210.084 19.1591 210.747 19.1591C211.353 19.1591 211.882 19.2917 212.332 19.5568C212.787 19.8182 213.139 20.1951 213.389 20.6875C213.643 21.1761 213.768 21.7614 213.764 22.4432V28H211.344V22.875C211.348 22.3371 211.211 21.9186 210.935 21.6193C210.662 21.3201 210.279 21.1705 209.787 21.1705C209.457 21.1705 209.166 21.2405 208.912 21.3807C208.662 21.5208 208.465 21.7254 208.321 21.9943C208.181 22.2595 208.109 22.5795 208.105 22.9545ZM218.158 28.1648C217.601 28.1648 217.105 28.0682 216.669 27.875C216.233 27.678 215.889 27.3883 215.635 27.0057C215.385 26.6193 215.26 26.1383 215.26 25.5625C215.26 25.0777 215.349 24.6705 215.527 24.3409C215.705 24.0114 215.947 23.7462 216.254 23.5455C216.561 23.3447 216.91 23.1932 217.3 23.0909C217.694 22.9886 218.107 22.9167 218.538 22.875C219.046 22.822 219.455 22.7727 219.766 22.7273C220.076 22.678 220.302 22.6061 220.442 22.5114C220.582 22.4167 220.652 22.2765 220.652 22.0909V22.0568C220.652 21.697 220.538 21.4186 220.311 21.2216C220.088 21.0246 219.769 20.9261 219.357 20.9261C218.921 20.9261 218.574 21.0227 218.317 21.2159C218.059 21.4053 217.889 21.6439 217.805 21.9318L215.567 21.75C215.68 21.2197 215.904 20.7614 216.237 20.375C216.571 19.9848 217 19.6856 217.527 19.4773C218.057 19.2652 218.671 19.1591 219.368 19.1591C219.853 19.1591 220.317 19.2159 220.76 19.3295C221.207 19.4432 221.603 19.6193 221.947 19.858C222.296 20.0966 222.571 20.4034 222.771 20.7784C222.972 21.1496 223.072 21.5947 223.072 22.1136V28H220.777V26.7898H220.709C220.569 27.0625 220.381 27.303 220.146 27.5114C219.911 27.7159 219.629 27.8769 219.3 27.9943C218.97 28.108 218.589 28.1648 218.158 28.1648ZM218.851 26.4943C219.207 26.4943 219.521 26.4242 219.794 26.2841C220.067 26.1402 220.281 25.947 220.436 25.7045C220.591 25.4621 220.669 25.1875 220.669 24.8807V23.9545C220.593 24.0038 220.489 24.0492 220.357 24.0909C220.228 24.1288 220.082 24.1648 219.919 24.1989C219.756 24.2292 219.593 24.2576 219.43 24.2841C219.268 24.3068 219.12 24.3277 218.987 24.3466C218.703 24.3883 218.455 24.4545 218.243 24.5455C218.031 24.6364 217.866 24.7595 217.749 24.9148C217.631 25.0663 217.572 25.2557 217.572 25.483C217.572 25.8125 217.692 26.0644 217.93 26.2386C218.173 26.4091 218.48 26.4943 218.851 26.4943ZM227.371 22.9545V28H224.95V19.2727H227.257V20.8125H227.359C227.553 20.3049 227.876 19.9034 228.331 19.608C228.786 19.3087 229.337 19.1591 229.984 19.1591C230.59 19.1591 231.119 19.2917 231.57 19.5568C232.02 19.822 232.371 20.2008 232.621 20.6932C232.871 21.1818 232.996 21.7652 232.996 22.4432V28H230.575V22.875C230.579 22.3409 230.443 21.9242 230.166 21.625C229.89 21.322 229.509 21.1705 229.024 21.1705C228.698 21.1705 228.411 21.2405 228.161 21.3807C227.914 21.5208 227.721 21.7254 227.581 21.9943C227.445 22.2595 227.375 22.5795 227.371 22.9545ZM243.311 16.3636H245.743V24.4773C245.743 25.2273 245.574 25.8788 245.237 26.4318C244.904 26.9848 244.44 27.411 243.845 27.7102C243.25 28.0095 242.559 28.1591 241.771 28.1591C241.071 28.1591 240.434 28.036 239.862 27.7898C239.294 27.5398 238.843 27.161 238.51 26.6534C238.177 26.142 238.012 25.5 238.016 24.7273H240.464C240.472 25.0341 240.535 25.2973 240.652 25.517C240.773 25.733 240.938 25.8996 241.146 26.017C241.358 26.1307 241.608 26.1875 241.896 26.1875C242.199 26.1875 242.455 26.1231 242.663 25.9943C242.875 25.8617 243.036 25.6686 243.146 25.4148C243.256 25.161 243.311 24.8485 243.311 24.4773V16.3636ZM250.22 28.1648C249.663 28.1648 249.167 28.0682 248.732 27.875C248.296 27.678 247.951 27.3883 247.697 27.0057C247.447 26.6193 247.322 26.1383 247.322 25.5625C247.322 25.0777 247.411 24.6705 247.589 24.3409C247.768 24.0114 248.01 23.7462 248.317 23.5455C248.624 23.3447 248.972 23.1932 249.362 23.0909C249.756 22.9886 250.169 22.9167 250.601 22.875C251.108 22.822 251.518 22.7727 251.828 22.7273C252.139 22.678 252.364 22.6061 252.504 22.5114C252.644 22.4167 252.714 22.2765 252.714 22.0909V22.0568C252.714 21.697 252.601 21.4186 252.374 21.2216C252.15 21.0246 251.832 20.9261 251.419 20.9261C250.983 20.9261 250.637 21.0227 250.379 21.2159C250.122 21.4053 249.951 21.6439 249.868 21.9318L247.629 21.75C247.743 21.2197 247.966 20.7614 248.3 20.375C248.633 19.9848 249.063 19.6856 249.589 19.4773C250.12 19.2652 250.733 19.1591 251.43 19.1591C251.915 19.1591 252.379 19.2159 252.822 19.3295C253.269 19.4432 253.665 19.6193 254.01 19.858C254.358 20.0966 254.633 20.4034 254.834 20.7784C255.035 21.1496 255.135 21.5947 255.135 22.1136V28H252.839V26.7898H252.771C252.631 27.0625 252.444 27.303 252.209 27.5114C251.974 27.7159 251.692 27.8769 251.362 27.9943C251.033 28.108 250.652 28.1648 250.22 28.1648ZM250.913 26.4943C251.269 26.4943 251.584 26.4242 251.857 26.2841C252.129 26.1402 252.343 25.947 252.499 25.7045C252.654 25.4621 252.732 25.1875 252.732 24.8807V23.9545C252.656 24.0038 252.552 24.0492 252.419 24.0909C252.29 24.1288 252.144 24.1648 251.982 24.1989C251.819 24.2292 251.656 24.2576 251.493 24.2841C251.33 24.3068 251.182 24.3277 251.05 24.3466C250.766 24.3883 250.518 24.4545 250.305 24.5455C250.093 24.6364 249.929 24.7595 249.811 24.9148C249.694 25.0663 249.635 25.2557 249.635 25.483C249.635 25.8125 249.754 26.0644 249.993 26.2386C250.235 26.4091 250.542 26.4943 250.913 26.4943ZM260.229 28.142C259.566 28.142 258.965 27.9716 258.428 27.6307C257.893 27.286 257.469 26.7803 257.155 26.1136C256.844 25.4432 256.689 24.6212 256.689 23.6477C256.689 22.6477 256.85 21.8163 257.172 21.1534C257.494 20.4867 257.922 19.9886 258.456 19.6591C258.994 19.3258 259.583 19.1591 260.223 19.1591C260.712 19.1591 261.119 19.2424 261.445 19.4091C261.774 19.572 262.039 19.7765 262.24 20.0227C262.445 20.2652 262.6 20.5038 262.706 20.7386H262.78V16.3636H265.195V28H262.808V26.6023H262.706C262.592 26.8447 262.431 27.0852 262.223 27.3239C262.018 27.5587 261.751 27.7538 261.422 27.9091C261.096 28.0644 260.698 28.142 260.229 28.142ZM260.996 26.2159C261.386 26.2159 261.715 26.1098 261.984 25.8977C262.257 25.6818 262.465 25.3807 262.609 24.9943C262.757 24.608 262.831 24.1553 262.831 23.6364C262.831 23.1174 262.759 22.6667 262.615 22.2841C262.471 21.9015 262.263 21.6061 261.99 21.3977C261.717 21.1894 261.386 21.0852 260.996 21.0852C260.598 21.0852 260.263 21.1932 259.99 21.4091C259.717 21.625 259.511 21.9242 259.371 22.3068C259.231 22.6894 259.161 23.1326 259.161 23.6364C259.161 24.1439 259.231 24.5928 259.371 24.983C259.515 25.3693 259.721 25.6723 259.99 25.892C260.263 26.108 260.598 26.2159 260.996 26.2159ZM268.906 28L266.531 19.2727H268.98L270.332 25.1364H270.412L271.821 19.2727H274.224L275.656 25.1023H275.73L277.06 19.2727H279.503L277.134 28H274.571L273.071 22.5114H272.963L271.463 28H268.906ZM283.283 28.1648C282.726 28.1648 282.23 28.0682 281.794 27.875C281.358 27.678 281.014 27.3883 280.76 27.0057C280.51 26.6193 280.385 26.1383 280.385 25.5625C280.385 25.0777 280.474 24.6705 280.652 24.3409C280.83 24.0114 281.072 23.7462 281.379 23.5455C281.686 23.3447 282.035 23.1932 282.425 23.0909C282.819 22.9886 283.232 22.9167 283.663 22.875C284.171 22.822 284.58 22.7727 284.891 22.7273C285.201 22.678 285.427 22.6061 285.567 22.5114C285.707 22.4167 285.777 22.2765 285.777 22.0909V22.0568C285.777 21.697 285.663 21.4186 285.436 21.2216C285.213 21.0246 284.894 20.9261 284.482 20.9261C284.046 20.9261 283.699 21.0227 283.442 21.2159C283.184 21.4053 283.014 21.6439 282.93 21.9318L280.692 21.75C280.805 21.2197 281.029 20.7614 281.362 20.375C281.696 19.9848 282.125 19.6856 282.652 19.4773C283.182 19.2652 283.796 19.1591 284.493 19.1591C284.978 19.1591 285.442 19.2159 285.885 19.3295C286.332 19.4432 286.728 19.6193 287.072 19.858C287.421 20.0966 287.696 20.4034 287.896 20.7784C288.097 21.1496 288.197 21.5947 288.197 22.1136V28H285.902V26.7898H285.834C285.694 27.0625 285.506 27.303 285.271 27.5114C285.036 27.7159 284.754 27.8769 284.425 27.9943C284.095 28.108 283.714 28.1648 283.283 28.1648ZM283.976 26.4943C284.332 26.4943 284.646 26.4242 284.919 26.2841C285.192 26.1402 285.406 25.947 285.561 25.7045C285.716 25.4621 285.794 25.1875 285.794 24.8807V23.9545C285.718 24.0038 285.614 24.0492 285.482 24.0909C285.353 24.1288 285.207 24.1648 285.044 24.1989C284.881 24.2292 284.718 24.2576 284.555 24.2841C284.393 24.3068 284.245 24.3277 284.112 24.3466C283.828 24.3883 283.58 24.4545 283.368 24.5455C283.156 24.6364 282.991 24.7595 282.874 24.9148C282.756 25.0663 282.697 25.2557 282.697 25.483C282.697 25.8125 282.817 26.0644 283.055 26.2386C283.298 26.4091 283.605 26.4943 283.976 26.4943ZM292.496 16.3636V28H290.075V16.3636H292.496Z" fill="#323238"/>
</svg>
